HIERARCHY
ROOT Hips
{
    OFFSET 0.000000 0.000000 0.000000
    CHANNELS 6 Xposition Yposition Zposition Zrotation Xrotation Yrotation
    JOINT Spine
    {
        OFFSET -0.000000 7.305679 0.000000
        CHANNELS 3 Zrotation Xrotation Yrotation
        JOINT Spine1
        {
            OFFSET -0.000000 20.356625 0.000000
            CHANNELS 3 Zrotation Xrotation Yrotation
            JOINT Neck
            {
                OFFSET -0.000000 22.138498 0.000000
                CHANNELS 3 Zrotation Xrotation Yrotation
                JOINT Head
                {
                    OFFSET -0.000000 13.809516 1.781873
                    CHANNELS 3 Zrotation Xrotation Yrotation
                    End Site
                    {
                        OFFSET -0.000000 17.818729 0.000000
                    }
                }
            }
            JOINT LeftShoulder
            {
                OFFSET 3.599131 17.989975 0.023592
                CHANNELS 3 Zrotation Xrotation Yrotation
                JOINT LeftArm
                {
                    OFFSET 12.560995 0.000000 0.000000
                    CHANNELS 3 Zrotation Xrotation Yrotation
                    JOINT LeftForeArm
                    {
                        OFFSET 22.903347 0.000000 0.000000
                        CHANNELS 3 Zrotation Xrotation Yrotation
                        JOINT LeftHand
                        {
                            OFFSET 21.865294 0.000000 0.000000
                            CHANNELS 3 Zrotation Xrotation Yrotation
                            JOINT LeftHandThumb1
                            {
                                OFFSET 1.853706 -2.106484 2.949078
                                CHANNELS 3 Zrotation Xrotation Yrotation
                                JOINT LeftHandThumb2
                                {
                                    OFFSET 2.049154 0.000000 1.336405
                                    CHANNELS 3 Zrotation Xrotation Yrotation
                                    JOINT LeftHandThumb3
                                    {
                                        OFFSET 2.672809 0.000000 0.000000
                                        CHANNELS 3 Zrotation Xrotation Yrotation
                                        End Site
                                        {
                                            OFFSET 2.381303 0.000000 0.000000
                                        }
                                    }
                                }
                            }
                            JOINT LeftHandIndex1
                            {
                                OFFSET 7.583345 0.000000 2.949078
                                CHANNELS 3 Zrotation Xrotation Yrotation
                                JOINT LeftHandIndex2
                                {
                                    OFFSET 4.454682 0.000000 0.000000
                                    CHANNELS 3 Zrotation Xrotation Yrotation
                                    JOINT LeftHandIndex3
                                    {
                                        OFFSET 2.227341 0.000000 0.000000
                                        CHANNELS 3 Zrotation Xrotation Yrotation
                                        End Site
                                        {
                                            OFFSET 1.984419 0.000000 0.000000
                                        }
                                    }
                                }
                            }
                            JOINT LeftHandMiddle1
                            {
                                OFFSET 7.583345 0.000000 0.977409
                                CHANNELS 3 Zrotation Xrotation Yrotation
                                JOINT LeftHandMiddle2
                                {
                                    OFFSET 4.900151 0.000000 0.000000
                                    CHANNELS 3 Zrotation Xrotation Yrotation
                                    JOINT LeftHandMiddle3
                                    {
                                        OFFSET 2.672809 0.000000 0.000000
                                        CHANNELS 3 Zrotation Xrotation Yrotation
                                        End Site
                                        {
                                            OFFSET 2.381303 0.000000 0.000000
                                        }
                                    }
                                }
                            }
                            JOINT LeftHandRing1
                            {
                                OFFSET 7.162047 0.000000 -0.977409
                                CHANNELS 3 Zrotation Xrotation Yrotation
                                JOINT LeftHandRing2
                                {
                                    OFFSET 4.454682 0.000000 0.000000
                                    CHANNELS 3 Zrotation Xrotation Yrotation
                                    JOINT LeftHandRing3
                                    {
                                        OFFSET 2.227341 0.000000 0.000000
                                        CHANNELS 3 Zrotation Xrotation Yrotation
                                        End Site
                                        {
                                            OFFSET 1.984419 0.000000 0.000000
                                        }
                                    }
                                }
                            }
                            JOINT LeftHandPinky1
                            {
                                OFFSET 6.740750 0.000000 -2.949078
                                CHANNELS 3 Zrotation Xrotation Yrotation
                                JOINT LeftHandPinky2
                                {
                                    OFFSET 3.563746 0.000000 0.000000
                                    CHANNELS 3 Zrotation Xrotation Yrotation
                                    JOINT LeftHandPinky3
                                    {
                                        OFFSET 1.781873 0.000000 0.000000
                                        CHANNELS 3 Zrotation Xrotation Yrotation
                                        End Site
                                        {
                                            OFFSET 1.587536 0.000000 0.000000
                                        }
                                    }
                                }
                            }
                        }
                    }
                }
            }
            JOINT RightShoulder
            {
                OFFSET -3.506995 17.989975 0.023592
                CHANNELS 3 Zrotation Xrotation Yrotation
                JOINT RightArm
                {
                    OFFSET -12.560995 0.000000 0.000000
                    CHANNELS 3 Zrotation Xrotation Yrotation
                    JOINT RightForeArm
                    {
                        OFFSET -22.903347 0.000000 0.000000
                        CHANNELS 3 Zrotation Xrotation Yrotation
                        JOINT RightHand
                        {
                            OFFSET -21.865294 0.000000 0.000000
                            CHANNELS 3 Zrotation Xrotation Yrotation
                            JOINT RightHandThumb1
                            {
                                OFFSET -1.853706 -2.106484 2.949078
                                CHANNELS 3 Zrotation Xrotation Yrotation
                                JOINT RightHandThumb2
                                {
                                    OFFSET -2.049154 0.000000 1.336405
                                    CHANNELS 3 Zrotation Xrotation Yrotation
                                    JOINT RightHandThumb3
                                    {
                                        OFFSET -2.672809 0.000000 0.000000
                                        CHANNELS 3 Zrotation Xrotation Yrotation
                                        End Site
                                        {
                                            OFFSET -2.381303 0.000000 0.000000
                                        }
                                    }
                                }
                            }
                            JOINT RightHandIndex1
                            {
                                OFFSET -7.583345 0.000000 2.949078
                                CHANNELS 3 Zrotation Xrotation Yrotation
                                JOINT RightHandIndex2
                                {
                                    OFFSET -4.454682 0.000000 0.000000
                                    CHANNELS 3 Zrotation Xrotation Yrotation
                                    JOINT RightHandIndex3
                                    {
                                        OFFSET -2.227341 0.000000 0.000000
                                        CHANNELS 3 Zrotation Xrotation Yrotation
                                        End Site
                                        {
                                            OFFSET -1.984419 0.000000 0.000000
                                        }
                                    }
                                }
                            }
                            JOINT RightHandMiddle1
                            {
                                OFFSET -7.583345 0.000000 0.977409
                                CHANNELS 3 Zrotation Xrotation Yrotation
                                JOINT RightHandMiddle2
                                {
                                    OFFSET -4.900151 0.000000 0.000000
                                    CHANNELS 3 Zrotation Xrotation Yrotation
                                    JOINT RightHandMiddle3
                                    {
                                        OFFSET -2.672809 0.000000 0.000000
                                        CHANNELS 3 Zrotation Xrotation Yrotation
                                        End Site
                                        {
                                            OFFSET -2.381303 0.000000 0.000000
                                        }
                                    }
                                }
                            }
                            JOINT RightHandRing1
                            {
                                OFFSET -7.162047 0.000000 -0.977409
                                CHANNELS 3 Zrotation Xrotation Yrotation
                                JOINT RightHandRing2
                                {
                                    OFFSET -4.454682 0.000000 0.000000
                                    CHANNELS 3 Zrotation Xrotation Yrotation
                                    JOINT RightHandRing3
                                    {
                                        OFFSET -2.227341 0.000000 0.000000
                                        CHANNELS 3 Zrotation Xrotation Yrotation
                                        End Site
                                        {
                                            OFFSET -1.984419 0.000000 0.000000
                                        }
                                    }
                                }
                            }
                            JOINT RightHandPinky1
                            {
                                OFFSET -6.740750 0.000000 -2.949078
                                CHANNELS 3 Zrotation Xrotation Yrotation
                                JOINT RightHandPinky2
                                {
                                    OFFSET -3.563746 0.000000 0.000000
                                    CHANNELS 3 Zrotation Xrotation Yrotation
                                    JOINT RightHandPinky3
                                    {
                                        OFFSET -1.781873 0.000000 0.000000
                                        CHANNELS 3 Zrotation Xrotation Yrotation
                                        End Site
                                        {
                                            OFFSET -1.587536 0.000000 0.000000
                                        }
                                    }
                                }
                            }
                        }
                    }
                }
            }
        }
    }
    JOINT LeftUpLeg
    {
        OFFSET 8.909365 0.000000 0.000000
        CHANNELS 3 Zrotation Xrotation Yrotation
        JOINT LeftLeg
        {
            OFFSET -0.000000 -38.765560 0.000000
            CHANNELS 3 Zrotation Xrotation Yrotation
            JOINT LeftFoot
            {
                OFFSET -0.000000 -35.244961 0.000000
                CHANNELS 3 Zrotation Xrotation Yrotation
                JOINT LeftToeBase
                {
                    OFFSET -0.000000 -5.791087 13.364048
                    CHANNELS 3 Zrotation Xrotation Yrotation
                    End Site
                    {
                        OFFSET -0.000000 0.000000 3.563746
                    }
                }
            }
        }
    }
    JOINT RightUpLeg
    {
        OFFSET -8.909365 0.000000 0.000000
        CHANNELS 3 Zrotation Xrotation Yrotation
        JOINT RightLeg
        {
            OFFSET -0.000000 -38.765560 0.000000
            CHANNELS 3 Zrotation Xrotation Yrotation
            JOINT RightFoot
            {
                OFFSET -0.000000 -35.244961 0.000000
                CHANNELS 3 Zrotation Xrotation Yrotation
                JOINT RightToeBase
                {
                    OFFSET -0.000000 -5.791087 13.364048
                    CHANNELS 3 Zrotation Xrotation Yrotation
                    End Site
                    {
                        OFFSET -0.000000 0.000000 3.563746
                    }
                }
            }
        }
    }
}
MOTION
Frames:    4
Frame Time:    0.033333
-7.916402    81.649696    104.915390    2.029567    -0.512538    -0.731674    -4.832228    -4.528313    -13.432107    6.124377    8.061313    -4.845666    -2.717223    -1.942216    3.601817    4.659049    -1.730344    2.875357    3.707793    -18.454458    -35.716984    -43.926704    25.044317    -53.523724    48.087181    -3.362200    -60.835434    58.285828    -22.750572    17.891613    0.975518    0.938582    2.305990    -0.000000    0.000000    1.997480    -0.000000    0.000000    3.994961    13.076390    -1.405936    -6.029979    0.000000    0.000000    0.000000    0.000000    0.000000    0.000000    14.451241    -0.990030    -4.028862    0.000000    0.000000    0.000000    0.000000    0.000000    0.000000    15.810591    -0.526504    -2.038500    0.000000    0.000000    0.000000    0.000000    0.000000    0.000000    17.193371    0.000000    -0.000000    0.000000    0.000000    0.000000    0.000000    0.000000    0.000000    -13.338280    -16.463648    9.710730    48.431026    25.462057    31.120457    -53.741604    -64.857635    67.513725    47.158401    -44.927368    32.690781    1.078764    -3.112294    5.610510    0.000000    0.000000    0.000000    0.000000    0.000000    0.000000    10.561186    0.606332    3.248541    21.156761    0.000000    -0.000000    10.578381    0.000000    -0.000000    13.220465    0.456789    2.167481    26.456572    0.000000    -0.000000    13.228286    0.000000    -0.000000    15.876404    0.257282    1.094543    31.756378    0.000000    -0.000000    15.878193    0.000000    -0.000000    18.608395    0.000000    -0.000000    37.216797    0.000000    -0.000000    18.608395    0.000000    -0.000000    -3.155185    2.575639    -0.777419    0.860863    -2.276762    24.886715    -2.088714    1.204984    -24.402245    0.619253    -2.251626    -1.885882    0.209315    4.209988    -2.993254    -1.089042    -4.605210    -14.170918    1.787393    -0.547940    13.181979    0.063435    -0.930275    -0.195359    
-8.049288    81.629387    104.888954    1.967799    -0.494667    1.703547    -5.064750    -4.622449    -12.522368    5.898622    7.849173    -4.510815    -1.726135    -0.699963    1.890961    4.413134    -2.637177    1.265424    4.040603    -17.879709    -34.383221    -45.451828    26.754187    -52.218220    49.198425    -5.092336    -65.096085    58.491753    -22.218533    18.261547    0.875038    0.711691    1.913532    -0.000000    0.000000    1.663638    -0.000000    0.000000    3.327275    12.806931    -1.356183    -5.943947    0.000000    0.000000    0.000000    0.000000    0.000000    0.000000    14.164154    -0.955418    -3.971762    0.000000    0.000000    0.000000    0.000000    0.000000    0.000000    15.506658    -0.508310    -2.009807    0.000000    0.000000    0.000000    0.000000    0.000000    0.000000    16.872950    0.000000    -0.000000    0.000000    0.000000    0.000000    0.000000    0.000000    0.000000    -13.665014    -15.454466    8.331172    46.843224    19.909874    26.518509    -38.000698    -68.062424    78.114967    65.307861    -39.337540    36.884830    2.500908    -4.025312    8.127435    0.000000    0.000000    0.000000    0.000000    0.000000    0.000000    14.245389    1.083483    4.259545    28.571371    0.000000    -0.000000    14.285686    0.000000    -0.000000    17.066452    0.796192    2.836557    34.169254    0.000000    -0.000000    17.084627    0.000000    -0.000000    19.879337    0.439320    1.429516    39.767147    0.000000    -0.000000    19.883568    0.000000    -0.000000    22.767328    0.000000    -0.000000    45.534657    0.000000    -0.000000    22.767328    0.000000    -0.000000    -2.886891    2.369026    -1.721828    0.811038    -2.296647    24.496309    -2.095908    1.568957    -25.482128    0.619453    -2.266620    -1.888856    0.499410    4.505704    -3.436856    -1.105976    -4.686901    -15.052940    1.512880    -0.791288    12.127862    0.078876    -0.943329    -0.221177    
-8.179044    81.608292    104.861008    1.895723    -0.446583    4.064676    -5.294365    -4.664617    -11.606991    5.739015    7.510251    -4.173639    -0.742065    0.336744    0.165706    4.068340    -3.127047    -0.344730    4.348602    -17.387299    -33.147282    -47.311687    28.450640    -51.001873    49.918049    -6.491604    -68.992615    58.807068    -21.833872    18.493670    0.929142    0.633329    1.885282    -0.000000    0.000000    1.657554    -0.000000    0.000000    3.315107    12.564626    -1.292093    -5.777153    0.000000    0.000000    0.000000    0.000000    0.000000    0.000000    13.911861    -0.910858    -3.860599    0.000000    0.000000    0.000000    0.000000    0.000000    0.000000    15.245481    -0.484899    -1.953701    0.000000    0.000000    0.000000    0.000000    0.000000    0.000000    16.603859    0.000000    -0.000000    0.000000    0.000000    0.000000    0.000000    0.000000    0.000000    -13.780062    -14.882331    7.443314    45.165417    15.370686    21.753994    -21.372036    -69.159866    89.902809    76.950844    -32.237648    38.659996    3.683041    -4.669464    10.107496    0.000000    0.000000    0.000000    0.000000    0.000000    0.000000    16.951649    1.430455    4.682033    34.020260    0.000000    -0.000000    17.010128    0.000000    -0.000000    20.218435    1.047856    3.110397    40.489365    0.000000    -0.000000    20.244680    0.000000    -0.000000    23.473162    0.576497    1.563280    46.958462    0.000000    -0.000000    23.479235    0.000000    -0.000000    26.811806    0.000000    -0.000000    53.623611    0.000000    -0.000000    26.811806    0.000000    -0.000000    -2.603347    2.126804    -2.745635    0.717331    -2.336865    24.115137    -2.070935    1.927086    -26.422031    0.620434    -2.273548    -1.892526    0.788319    4.720808    -3.825429    -1.103454    -4.719447    -15.929789    1.241659    -1.054383    11.084560    0.092189    -0.959199    -0.243922    
-8.305471    81.584511    104.839409    1.787187    -0.402179    6.219398    -5.456160    -4.707557    -10.556905    5.607800    7.169672    -3.795063    0.070646    1.166710    -1.541028    3.912344    -3.363210    -1.973814    4.686516    -16.968376    -31.937704    -49.244087    30.176023    -50.045536    50.220249    -7.476922    -72.496597    58.969910    -21.566217    18.360519    1.113984    0.478144    1.923266    -0.000000    0.000000    1.647583    -0.000000    0.000000    3.295166    12.506736    -1.225748    -5.508461    0.000000    0.000000    0.000000    0.000000    0.000000    0.000000    13.844256    -0.864030    -3.681171    0.000000    0.000000    0.000000    0.000000    0.000000    0.000000    15.169456    -0.459956    -1.862961    0.000000    0.000000    0.000000    0.000000    0.000000    0.000000    16.520655    0.000000    -0.000000    0.000000    0.000000    0.000000    0.000000    0.000000    0.000000    -13.740013    -14.314067    7.088658    43.761559    11.090966    16.650097    -8.306870    -68.733429    99.426964    83.171021    -24.817177    39.371380    4.542122    -5.292222    11.830109    0.000000    0.000000    0.000000    0.000000    0.000000    0.000000    19.658089    1.915806    5.346426    39.495094    0.000000    -0.000000    19.747547    0.000000    -0.000000    23.304239    1.397563    3.542270    46.688316    0.000000    -0.000000    23.344160    0.000000    -0.000000    26.931591    0.765965    1.775059    53.881546    0.000000    -0.000000    26.940773    0.000000    -0.000000    30.646370    0.000000    -0.000000    61.292740    0.000000    -0.000000    30.646370    0.000000    -0.000000    -2.280069    1.902948    -3.794864    0.579169    -2.403130    23.648268    -2.029772    2.248240    -27.047369    0.615154    -2.334167    -1.888825    1.062157    4.798382    -4.220090    -1.024829    -4.532553    -16.541935    0.991442    -1.432966    9.988407    0.101704    -0.940232    -0.257007    
